<?xml version="1.0" encoding="UTF-8"?>
<!-- Generator: Adobe Illustrator 21.0.2, SVG Export Plug-In . SVG Version: 6.00 Build 0)  -->
<svg version="1.1" id="Layer_1" xmlns="http://www.w3.org/2000/svg" xlink="http://www.w3.org/1999/xlink" x="0px" y="0px" viewBox="0 0 216 134.1" style="enable-background:new 0 0 216 134.1;" xml:space="preserve" width="389">
    <style type="text/css">
	#Layer_1 {width: 44px; fill: #ddd;}
  </style>
<path d="M88.6,35.8V7.6c0-0.6,0.4-1.2,1-1.4l17.3-6.1c0.3-0.1,0.7-0.1,1,0l17.3,6.1c0.6,0.2,1,0.8,1,1.4v6.7l-5,0v-4.2l-13.8-4.8
	l-13.8,4.8v23.2l13.8,4.8l13.8-4.8v-9.1H102V28h15.6l0,5H98.4c-0.8,0-1.5-0.7-1.5-1.5V11.8c0-0.8,0.7-1.5,1.5-1.5h19.1v5H102v3.8
	h22.7c0.8,0,1.5,0.7,1.5,1.5v15.2c0,0.6-0.4,1.2-1,1.4l-17.3,6.1c-0.3,0.1-0.7,0.1-1,0l-17.3-6.1C89,37,88.6,36.5,88.6,35.8z
	 M74.4,122.2h-2.6c-0.1,0-0.2,0-0.3,0.1c-0.1,0.1-0.2,0.2-0.2,0.2l-1.8,5.4c0,0.1-0.1,0.2-0.2,0.2c-0.1,0-0.1-0.1-0.2-0.2l-1.8-5.3
	c0-0.1-0.1-0.2-0.2-0.3c-0.1-0.1-0.2-0.1-0.3-0.1h-2.1c-0.1,0-0.2,0-0.3,0.1c-0.1,0.1-0.2,0.2-0.2,0.3l-1.8,5.3
	c0,0.1-0.1,0.2-0.2,0.2c-0.1,0-0.1-0.1-0.2-0.2l-1.8-5.3c0-0.1-0.1-0.2-0.2-0.2c-0.1-0.1-0.2-0.1-0.3-0.1h-2.6c-0.1,0-0.2,0-0.2,0.1
	c0,0.1,0,0.2,0,0.3l3.8,10.9c0,0.1,0.1,0.2,0.2,0.2c0.1,0.1,0.2,0.1,0.3,0.1h2.1c0.1,0,0.2,0,0.3-0.1c0.1-0.1,0.2-0.2,0.2-0.3
	l1.8-5.3c0-0.1,0.1-0.2,0.2-0.2c0.1,0,0.1,0.1,0.2,0.2l1.8,5.3c0,0.1,0.1,0.2,0.2,0.3c0.1,0.1,0.2,0.1,0.3,0.1h2.1
	c0.1,0,0.2,0,0.3-0.1c0.1-0.1,0.2-0.2,0.2-0.3l3.9-10.9c0-0.1,0-0.2,0-0.3C74.6,122.3,74.6,122.2,74.4,122.2z M81.5,122.2h-2.4
	c-0.1,0-0.2,0-0.3,0.1s-0.1,0.2-0.1,0.3v10.9c0,0.1,0,0.2,0.1,0.3c0.1,0.1,0.2,0.1,0.3,0.1h2.4c0.1,0,0.2,0,0.3-0.1
	c0.1-0.1,0.1-0.2,0.1-0.3v-10.9c0-0.1,0-0.2-0.1-0.3C81.7,122.3,81.7,122.2,81.5,122.2z M97.3,122.2h-2.4c-0.1,0-0.2,0-0.3,0.1
	s-0.1,0.2-0.1,0.3v5.7c0,0.1,0,0.2-0.1,0.2c-0.1,0-0.1,0-0.2-0.1l-4.2-5.9c-0.1-0.1-0.2-0.2-0.3-0.2c-0.1-0.1-0.2-0.1-0.3-0.1H87
	c-0.1,0-0.2,0-0.3,0.1c-0.1,0.1-0.1,0.2-0.1,0.3v10.9c0,0.1,0,0.2,0.1,0.3c0.1,0.1,0.2,0.1,0.3,0.1h2.4c0.1,0,0.2,0,0.3-0.1
	c0.1-0.1,0.1-0.2,0.1-0.3v-5.7c0-0.1,0-0.2,0.1-0.2s0.1,0,0.2,0.1l4.2,5.9c0.1,0.1,0.2,0.2,0.3,0.2c0.1,0.1,0.2,0.1,0.3,0.1h2.4
	c0.1,0,0.2,0,0.3-0.1c0.1-0.1,0.1-0.2,0.1-0.3v-10.9c0-0.1,0-0.2-0.1-0.3S97.4,122.2,97.3,122.2z M111.1,122.2H103
	c-0.1,0-0.2,0-0.3,0.1c-0.1,0.1-0.1,0.2-0.1,0.3v10.9c0,0.1,0,0.2,0.1,0.3c0.1,0.1,0.2,0.1,0.3,0.1h8.1c0.1,0,0.2,0,0.3-0.1
	c0.1-0.1,0.1-0.2,0.1-0.3v-2.2c0-0.1,0-0.2-0.1-0.3c-0.1-0.1-0.2-0.1-0.3-0.1h-5c-0.1,0-0.2,0-0.3-0.1c-0.1-0.1-0.1-0.2-0.1-0.3V130
	c0-0.1,0-0.2,0.1-0.3c0.1-0.1,0.2-0.1,0.3-0.1h4.3c0.1,0,0.2,0,0.3-0.1c0.1-0.1,0.1-0.2,0.1-0.3V127c0-0.1,0-0.2-0.1-0.3
	c-0.1-0.1-0.2-0.1-0.3-0.1h-4.3c-0.1,0-0.2,0-0.3-0.1c-0.1-0.1-0.1-0.2-0.1-0.3v-0.7c0-0.1,0-0.2,0.1-0.3c0.1-0.1,0.2-0.1,0.3-0.1h5
	c0.1,0,0.2,0,0.3-0.1s0.1-0.2,0.1-0.3v-2.2c0-0.1,0-0.2-0.1-0.3S111.2,122.2,111.1,122.2z M127.6,126c0.3-0.3,0.6-0.5,0.9-0.7
	c0.4-0.2,0.7-0.3,1.1-0.3c0.6,0,1.1,0.1,1.6,0.4c0.4,0.3,0.8,0.6,1.1,1.1c0.1,0.1,0.1,0.1,0.2,0.2c0.1,0,0.2,0,0.3,0l2.3-0.9
	c0.1,0,0.2-0.1,0.2-0.2c0-0.1,0-0.2,0-0.3c-0.3-0.5-0.6-0.9-1-1.4c-0.4-0.4-0.8-0.8-1.2-1c-0.5-0.3-1-0.5-1.5-0.7
	c-0.6-0.2-1.2-0.2-1.9-0.2c-0.9,0-1.7,0.2-2.4,0.5c-0.7,0.3-1.4,0.8-2,1.3c-0.6,0.5-1,1.2-1.3,1.9c-0.3,0.7-0.5,1.5-0.5,2.4
	s0.2,1.6,0.5,2.4c0.3,0.7,0.8,1.4,1.3,1.9c0.6,0.5,1.2,1,2,1.3c0.7,0.3,1.5,0.5,2.4,0.5c0.7,0,1.3-0.1,1.9-0.2
	c0.6-0.2,1.1-0.4,1.5-0.7c0.5-0.3,0.9-0.6,1.3-1c0.4-0.4,0.7-0.9,1-1.4c0.1-0.1,0.1-0.2,0-0.3c0-0.1-0.1-0.2-0.2-0.2l-2.3-0.9
	c-0.1,0-0.2,0-0.3,0c-0.1,0-0.2,0.1-0.2,0.2c-0.3,0.4-0.7,0.8-1.1,1.1s-1,0.4-1.6,0.4c-0.4,0-0.8-0.1-1.1-0.3
	c-0.4-0.2-0.7-0.4-0.9-0.7s-0.5-0.6-0.6-1c-0.1-0.4-0.2-0.8-0.2-1.2c0-0.4,0.1-0.8,0.2-1.2C127.2,126.6,127.4,126.2,127.6,126z
	 M150.3,125.7c0.3,0.7,0.5,1.5,0.5,2.4c0,0.8-0.2,1.6-0.5,2.4c-0.3,0.7-0.8,1.4-1.3,1.9c-0.5,0.5-1.2,1-1.9,1.3
	c-0.7,0.3-1.5,0.5-2.4,0.5c-0.8,0-1.6-0.2-2.4-0.5c-0.7-0.3-1.4-0.8-1.9-1.3c-0.5-0.5-1-1.2-1.3-1.9c-0.3-0.7-0.5-1.5-0.5-2.4
	c0-0.8,0.2-1.6,0.5-2.4c0.3-0.7,0.8-1.4,1.3-1.9c0.5-0.5,1.2-1,1.9-1.3c0.7-0.3,1.5-0.5,2.4-0.5c0.8,0,1.6,0.2,2.4,0.5
	c0.7,0.3,1.4,0.8,1.9,1.3S150,125,150.3,125.7z M147.6,128.1c0-0.4-0.1-0.8-0.2-1.1c-0.2-0.4-0.4-0.7-0.6-1
	c-0.3-0.3-0.6-0.5-0.9-0.7c-0.4-0.2-0.7-0.2-1.1-0.2c-0.4,0-0.8,0.1-1.1,0.2c-0.4,0.2-0.7,0.4-0.9,0.7c-0.3,0.3-0.5,0.6-0.6,1
	c-0.1,0.4-0.2,0.7-0.2,1.1c0,0.4,0.1,0.8,0.2,1.2c0.1,0.4,0.4,0.7,0.6,1c0.3,0.3,0.6,0.5,0.9,0.7c0.4,0.2,0.7,0.2,1.1,0.2
	c0.4,0,0.8-0.1,1.1-0.2c0.4-0.2,0.7-0.4,0.9-0.7c0.3-0.3,0.5-0.6,0.6-1C147.5,128.9,147.6,128.5,147.6,128.1z M157.1,131.3
	c-0.1-0.1-0.3-0.3-0.5-0.4c-0.2-0.1-0.4-0.1-0.6-0.1s-0.4,0-0.6,0.1c-0.2,0.1-0.4,0.2-0.5,0.4c-0.1,0.1-0.3,0.3-0.4,0.5
	c-0.1,0.2-0.1,0.4-0.1,0.6c0,0.2,0,0.4,0.1,0.6c0.1,0.2,0.2,0.4,0.4,0.5c0.1,0.1,0.3,0.3,0.5,0.4c0.2,0.1,0.4,0.1,0.6,0.1
	s0.4,0,0.6-0.1c0.2-0.1,0.4-0.2,0.5-0.4c0.1-0.1,0.3-0.3,0.4-0.5c0.1-0.2,0.1-0.4,0.1-0.6c0-0.2,0-0.4-0.1-0.6
	C157.4,131.6,157.2,131.4,157.1,131.3z M14.1,77.4c0.1-0.1,0.2-0.3,0.2-0.4v-3.5c0-0.2-0.1-0.3-0.2-0.4c-0.1-0.1-0.3-0.2-0.4-0.2h-8
	c-0.2,0-0.3-0.1-0.4-0.2c-0.1-0.1-0.2-0.3-0.2-0.4v-1c0-0.2,0.1-0.3,0.2-0.4c0.1-0.1,0.3-0.2,0.4-0.2h7c0.2,0,0.3-0.1,0.4-0.2
	c0.1-0.1,0.2-0.3,0.2-0.4v-3.5c0-0.2-0.1-0.3-0.2-0.4c-0.1-0.1-0.3-0.2-0.4-0.2h-7c-0.2,0-0.3-0.1-0.4-0.2c-0.1-0.1-0.2-0.3-0.2-0.4
	v-1.1c0-0.2,0.1-0.3,0.2-0.4c0.1-0.1,0.3-0.2,0.4-0.2h8c0.2,0,0.3-0.1,0.4-0.2c0.1-0.1,0.2-0.3,0.2-0.4v-3.5c0-0.2-0.1-0.3-0.2-0.4
	c-0.1-0.1-0.3-0.2-0.4-0.2H0.6c-0.2,0-0.3,0.1-0.4,0.2C0.1,59.1,0,59.2,0,59.4V77c0,0.2,0.1,0.3,0.2,0.4c0.1,0.1,0.3,0.2,0.4,0.2
	h13.1C13.9,77.6,14,77.5,14.1,77.4z M36,72c0-1.1-0.2-2-0.7-2.7c-0.4-0.7-1-1.3-1.6-1.8c-0.6-0.5-1.3-0.8-2.1-1
	c-0.7-0.2-1.4-0.4-2-0.5c-0.1,0-0.4-0.1-0.8-0.1c-0.4-0.1-0.9-0.2-1.3-0.3c-0.5-0.1-0.9-0.3-1.2-0.5c-0.4-0.2-0.5-0.4-0.5-0.6
	c0-0.2,0.1-0.4,0.2-0.6c0.1-0.1,0.3-0.2,0.6-0.3c0.2-0.1,0.5-0.1,0.7-0.1c0.2,0,0.5,0,0.7,0c0.6,0,1.3,0.1,2.1,0.3
	c0.8,0.2,1.6,0.6,2.4,1.2c0.1,0.1,0.3,0.1,0.5,0.1c0.2,0,0.3-0.1,0.4-0.3l2-2.8c0.1-0.1,0.1-0.3,0.1-0.5c0-0.2-0.1-0.3-0.2-0.4
	c-1-0.8-2.1-1.4-3.3-1.8c-1.1-0.4-2.4-0.6-3.9-0.6c-0.8,0-1.7,0.1-2.5,0.3c-0.9,0.2-1.7,0.5-2.4,0.9c-0.7,0.5-1.3,1.1-1.8,1.8
	c-0.5,0.8-0.7,1.7-0.7,2.9c0,0.8,0.1,1.5,0.4,2.1c0.2,0.6,0.6,1.1,1,1.5c0.4,0.4,0.9,0.8,1.4,1.1c0.5,0.3,1,0.5,1.6,0.7
	s1,0.3,1.6,0.4c0.5,0.1,0.9,0.2,1.3,0.2c0.4,0.1,0.8,0.2,1.2,0.2c0.4,0.1,0.7,0.1,1,0.2c0.3,0.1,0.5,0.2,0.7,0.3
	c0.2,0.1,0.3,0.3,0.3,0.5c0,0.4-0.2,0.7-0.6,1c-0.4,0.2-1,0.3-1.7,0.3c-0.8,0-1.6-0.2-2.5-0.5c-0.9-0.3-1.8-0.8-2.7-1.4
	c-0.1-0.1-0.3-0.1-0.5-0.1c-0.2,0-0.3,0.1-0.4,0.3l-2,2.9c-0.1,0.1-0.1,0.3-0.1,0.5c0,0.2,0.1,0.3,0.2,0.4c0.5,0.4,1,0.8,1.6,1.1
	c0.6,0.4,1.2,0.7,1.9,0.9c0.7,0.3,1.4,0.5,2.2,0.6c0.8,0.1,1.6,0.2,2.5,0.2c1.1,0,2.1-0.1,3-0.3c0.9-0.2,1.7-0.6,2.3-1.1
	c0.6-0.5,1.1-1.1,1.5-1.8C35.8,73.9,36,73.1,36,72z M56.4,69.3c-0.4-0.7-1-1.3-1.6-1.8c-0.6-0.5-1.3-0.8-2.1-1
	c-0.7-0.2-1.4-0.4-2-0.5c-0.1,0-0.4-0.1-0.8-0.1c-0.4-0.1-0.9-0.2-1.3-0.3c-0.5-0.1-0.9-0.3-1.2-0.5c-0.4-0.2-0.5-0.4-0.5-0.6
	c0-0.2,0.1-0.4,0.2-0.6c0.1-0.1,0.3-0.2,0.6-0.3c0.2-0.1,0.5-0.1,0.7-0.1c0.2,0,0.5,0,0.7,0c0.6,0,1.3,0.1,2.1,0.3
	c0.8,0.2,1.6,0.6,2.4,1.2c0.1,0.1,0.3,0.1,0.5,0.1c0.2,0,0.3-0.1,0.4-0.3l2-2.8c0.1-0.1,0.1-0.3,0.1-0.5c0-0.2-0.1-0.3-0.2-0.4
	c-1-0.8-2.1-1.4-3.3-1.8c-1.1-0.4-2.4-0.6-3.9-0.6c-0.8,0-1.7,0.1-2.5,0.3s-1.7,0.5-2.4,0.9c-0.7,0.5-1.3,1.1-1.8,1.8
	c-0.5,0.8-0.7,1.7-0.7,2.9c0,0.8,0.1,1.5,0.4,2.1c0.2,0.6,0.6,1.1,1,1.5c0.4,0.4,0.9,0.8,1.4,1.1c0.5,0.3,1,0.5,1.6,0.7
	s1,0.3,1.6,0.4c0.5,0.1,0.9,0.2,1.3,0.2c0.4,0.1,0.8,0.2,1.2,0.2c0.4,0.1,0.7,0.1,1,0.2c0.3,0.1,0.5,0.2,0.7,0.3
	c0.2,0.1,0.3,0.3,0.3,0.5c0,0.4-0.2,0.7-0.6,1c-0.4,0.2-1,0.3-1.7,0.3c-0.8,0-1.6-0.2-2.5-0.5c-0.9-0.3-1.8-0.8-2.7-1.4
	c-0.1-0.1-0.3-0.1-0.5-0.1c-0.2,0-0.3,0.1-0.4,0.3l-2,2.9c-0.1,0.1-0.1,0.3-0.1,0.5s0.1,0.3,0.2,0.4c0.5,0.4,1,0.8,1.6,1.1
	c0.6,0.4,1.2,0.7,1.9,0.9c0.7,0.3,1.4,0.5,2.2,0.6c0.8,0.1,1.6,0.2,2.5,0.2c1.1,0,2.1-0.1,3-0.3c0.9-0.2,1.7-0.6,2.3-1.1
	c0.6-0.5,1.1-1.1,1.5-1.8c0.4-0.7,0.5-1.6,0.5-2.7C57,70.9,56.8,70,56.4,69.3z M63.9,77.6h13.1c0.2,0,0.3-0.1,0.4-0.2
	s0.2-0.3,0.2-0.4v-3.5c0-0.2-0.1-0.3-0.2-0.4c-0.1-0.1-0.3-0.2-0.4-0.2h-8c-0.2,0-0.3-0.1-0.4-0.2c-0.1-0.1-0.2-0.3-0.2-0.4v-1
	c0-0.2,0.1-0.3,0.2-0.4c0.1-0.1,0.3-0.2,0.4-0.2h7c0.2,0,0.3-0.1,0.4-0.2c0.1-0.1,0.2-0.3,0.2-0.4v-3.5c0-0.2-0.1-0.3-0.2-0.4
	c-0.1-0.1-0.3-0.2-0.4-0.2h-7c-0.2,0-0.3-0.1-0.4-0.2c-0.1-0.1-0.2-0.3-0.2-0.4v-1.1c0-0.2,0.1-0.3,0.2-0.4c0.1-0.1,0.3-0.2,0.4-0.2
	h8c0.2,0,0.3-0.1,0.4-0.2c0.1-0.1,0.2-0.3,0.2-0.4v-3.5c0-0.2-0.1-0.3-0.2-0.4c-0.1-0.1-0.3-0.2-0.4-0.2H63.9
	c-0.2,0-0.3,0.1-0.4,0.2c-0.1,0.1-0.2,0.3-0.2,0.4V77c0,0.2,0.1,0.3,0.2,0.4C63.5,77.5,63.7,77.6,63.9,77.6z M89.3,77.4
	c0.1-0.1,0.2-0.3,0.2-0.4v-9.2c0-0.2,0.1-0.3,0.2-0.3c0.1,0,0.2,0,0.3,0.2l6.7,9.4c0.1,0.1,0.2,0.3,0.4,0.4c0.2,0.1,0.4,0.2,0.5,0.2
	h3.8c0.2,0,0.3-0.1,0.4-0.2s0.2-0.3,0.2-0.4V59.4c0-0.2-0.1-0.3-0.2-0.4c-0.1-0.1-0.3-0.2-0.4-0.2h-3.8c-0.2,0-0.3,0.1-0.4,0.2
	c-0.1,0.1-0.2,0.3-0.2,0.4v9.2c0,0.2-0.1,0.3-0.2,0.3c-0.1,0-0.2,0-0.3-0.2l-6.7-9.4c-0.1-0.1-0.2-0.3-0.4-0.3
	c-0.2-0.1-0.4-0.1-0.5-0.1H85c-0.2,0-0.3,0.1-0.4,0.2c-0.1,0.1-0.2,0.3-0.2,0.4V77c0,0.2,0.1,0.3,0.2,0.4c0.1,0.1,0.3,0.2,0.4,0.2
	h3.8C89.1,77.6,89.2,77.5,89.3,77.4z M113,77.4c0.1,0.1,0.3,0.2,0.4,0.2h3.9c0.2,0,0.3-0.1,0.4-0.2c0.1-0.1,0.2-0.3,0.2-0.4V64.1
	c0-0.2,0.1-0.3,0.2-0.4c0.1-0.1,0.3-0.2,0.4-0.2h3.6c0.2,0,0.3-0.1,0.4-0.2c0.1-0.1,0.2-0.3,0.2-0.4v-3.5c0-0.2-0.1-0.3-0.2-0.4
	c-0.1-0.1-0.3-0.2-0.4-0.2h-13.6c-0.2,0-0.3,0.1-0.4,0.2c-0.1,0.1-0.2,0.3-0.2,0.4v3.5c0,0.2,0.1,0.3,0.2,0.4
	c0.1,0.1,0.3,0.2,0.4,0.2h3.6c0.2,0,0.3,0.1,0.4,0.2c0.1,0.1,0.2,0.3,0.2,0.4V77C112.8,77.2,112.9,77.3,113,77.4z M129.1,77.6h3.9
	c0.2,0,0.3-0.1,0.4-0.2s0.2-0.3,0.2-0.4V59.4c0-0.2-0.1-0.3-0.2-0.4c-0.1-0.1-0.3-0.2-0.4-0.2h-3.9c-0.2,0-0.3,0.1-0.4,0.2
	c-0.1,0.1-0.2,0.3-0.2,0.4V77c0,0.2,0.1,0.3,0.2,0.4C128.8,77.5,128.9,77.6,129.1,77.6z M159,76.9c0.1,0.2,0.1,0.3,0,0.5
	c-0.1,0.2-0.3,0.3-0.6,0.3H154c-0.2,0-0.4-0.1-0.5-0.2c-0.2-0.1-0.3-0.2-0.4-0.4l-0.7-1.5c-0.1-0.2-0.2-0.3-0.4-0.4
	c-0.2-0.1-0.3-0.2-0.5-0.2h-5.4c-0.2,0-0.4,0.1-0.5,0.2c-0.2,0.1-0.3,0.2-0.3,0.4l-0.7,1.5c-0.1,0.2-0.2,0.3-0.3,0.4
	c-0.2,0.1-0.3,0.2-0.5,0.2h-4.4c-0.1,0-0.2,0-0.3-0.1c-0.1,0-0.2-0.1-0.2-0.2c-0.1-0.1-0.1-0.2-0.1-0.3c0-0.1,0-0.2,0.1-0.4
	l7.4-17.4c0.1-0.2,0.2-0.3,0.3-0.4c0.2-0.1,0.3-0.2,0.5-0.2h3.6c0.2,0,0.3,0.1,0.5,0.2c0.2,0.1,0.3,0.2,0.3,0.4L159,76.9z M150.3,70
	c-0.2-0.4-0.4-0.9-0.6-1.5c-0.2-0.6-0.5-1.1-0.7-1.6c-0.1-0.2-0.1-0.2-0.2-0.2s-0.2,0.1-0.2,0.2l-1.3,3.1c-0.1,0.2-0.1,0.3,0,0.4
	c0.1,0.1,0.2,0.2,0.4,0.2h2.3c0.2,0,0.3-0.1,0.4-0.2C150.4,70.3,150.4,70.2,150.3,70z M164.3,77.6h12.8c0.2,0,0.3-0.1,0.4-0.2
	s0.2-0.3,0.2-0.4v-3.5c0-0.2-0.1-0.3-0.2-0.4c-0.1-0.1-0.3-0.2-0.4-0.2h-7.7c-0.2,0-0.3-0.1-0.4-0.2c-0.1-0.1-0.2-0.3-0.2-0.4V59.4
	c0-0.2-0.1-0.3-0.2-0.4c-0.1-0.1-0.3-0.2-0.4-0.2h-3.9c-0.2,0-0.3,0.1-0.4,0.2c-0.1,0.1-0.2,0.3-0.2,0.4V77c0,0.2,0.1,0.3,0.2,0.4
	C164,77.5,164.1,77.6,164.3,77.6z M197.1,73.5c0-0.2-0.1-0.3-0.2-0.4c-0.1-0.1-0.3-0.2-0.4-0.2h-7.7c-0.2,0-0.3-0.1-0.4-0.2
	c-0.1-0.1-0.2-0.3-0.2-0.4V59.4c0-0.2-0.1-0.3-0.2-0.4c-0.1-0.1-0.3-0.2-0.4-0.2h-3.9c-0.2,0-0.3,0.1-0.4,0.2
	c-0.1,0.1-0.2,0.3-0.2,0.4V77c0,0.2,0.1,0.3,0.2,0.4c0.1,0.1,0.3,0.2,0.4,0.2h12.8c0.2,0,0.3-0.1,0.4-0.2s0.2-0.3,0.2-0.4V73.5z
	 M216,59c-0.1-0.1-0.2-0.2-0.4-0.2H211c-0.2,0-0.3,0.1-0.5,0.2c-0.2,0.1-0.3,0.2-0.4,0.4l-3.1,5.5c-0.1,0.1-0.2,0.2-0.3,0.2
	s-0.2-0.1-0.3-0.2l-3.1-5.5c-0.1-0.2-0.2-0.3-0.4-0.4c-0.2-0.1-0.4-0.2-0.5-0.2h-4.6c-0.2,0-0.3,0.1-0.3,0.2c-0.1,0.2,0,0.3,0.1,0.5
	c1.1,1.8,2.1,3.5,3.2,5.2c1.1,1.7,2.1,3.4,3.1,5.2c0.1,0.1,0.2,0.3,0.2,0.6c0.1,0.2,0.1,0.4,0.1,0.6V77c0,0.2,0.1,0.3,0.2,0.4
	s0.3,0.2,0.4,0.2h3.9c0.2,0,0.3-0.1,0.4-0.2s0.2-0.3,0.2-0.4v-5.9c0-0.2,0-0.4,0.1-0.6c0.1-0.2,0.1-0.4,0.2-0.6l6.4-10.4
	C216,59.3,216,59.1,216,59z M54.6,96.7c-0.1-0.1-0.3-0.2-0.4-0.2h-8.8c-0.2,0-0.3,0.1-0.4,0.2c-0.1,0.1-0.2,0.3-0.2,0.4v3.1
	c0,0.2,0.1,0.3,0.2,0.4c0.1,0.1,0.3,0.2,0.4,0.2h3c0.2,0,0.3,0.1,0.4,0.2c0.1,0.1,0.1,0.2,0,0.4c-0.4,0.5-0.9,0.9-1.5,1.2
	c-0.6,0.2-1.3,0.4-1.9,0.4c-0.7,0-1.3-0.1-1.8-0.4c-0.6-0.3-1.1-0.6-1.5-1.1c-0.4-0.4-0.8-0.9-1-1.5c-0.2-0.6-0.4-1.2-0.4-1.8
	c0-0.6,0.1-1.2,0.4-1.8c0.2-0.6,0.6-1.1,1-1.6c0.4-0.4,0.9-0.8,1.5-1.1c0.6-0.3,1.2-0.4,1.8-0.4c0.9,0,1.7,0.2,2.3,0.6
	c0.7,0.4,1.3,0.9,1.8,1.6c0.1,0.1,0.3,0.2,0.4,0.2c0.2,0,0.3,0,0.5-0.1l3.1-2c0.1-0.1,0.2-0.2,0.3-0.4c0-0.2,0-0.3-0.1-0.5
	c-0.9-1.4-2-2.4-3.4-3.2c-1.4-0.8-3-1.2-4.9-1.2c-1.4,0-2.7,0.3-3.9,0.8c-1.2,0.5-2.2,1.2-3.1,2.1c-0.9,0.9-1.6,1.9-2.1,3.1
	c-0.5,1.2-0.8,2.4-0.8,3.8c0,1.3,0.3,2.6,0.8,3.8c0.5,1.2,1.2,2.2,2.1,3.1c0.9,0.9,1.9,1.6,3.1,2.1c1.2,0.5,2.5,0.8,3.9,0.8
	c1.2,0,2.4-0.2,3.5-0.6c1.1-0.4,2.1-1,3-1.7c0.9-0.7,1.6-1.6,2.1-2.6c0.5-1,0.9-2.1,1-3.3c0.1-0.4,0.1-0.9,0.1-1.3
	c0-0.4,0-0.8-0.1-1.1C54.8,97,54.8,96.9,54.6,96.7z M77.6,88.7H64.5c-0.2,0-0.3,0.1-0.4,0.2c-0.1,0.1-0.2,0.3-0.2,0.4v17.6
	c0,0.2,0.1,0.3,0.2,0.4c0.1,0.1,0.3,0.2,0.4,0.2h13.1c0.2,0,0.3-0.1,0.4-0.2c0.1-0.1,0.2-0.3,0.2-0.4v-3.5c0-0.2-0.1-0.3-0.2-0.4
	c-0.1-0.1-0.3-0.2-0.4-0.2h-8c-0.2,0-0.3-0.1-0.4-0.2c-0.1-0.1-0.2-0.3-0.2-0.4v-1c0-0.2,0.1-0.3,0.2-0.4c0.1-0.1,0.3-0.2,0.4-0.2h7
	c0.2,0,0.3-0.1,0.4-0.2c0.1-0.1,0.2-0.3,0.2-0.4v-3.5c0-0.2-0.1-0.3-0.2-0.4c-0.1-0.1-0.3-0.2-0.4-0.2h-7c-0.2,0-0.3-0.1-0.4-0.2
	c-0.1-0.1-0.2-0.3-0.2-0.4V94c0-0.2,0.1-0.3,0.2-0.4c0.1-0.1,0.3-0.2,0.4-0.2h8c0.2,0,0.3-0.1,0.4-0.2s0.2-0.3,0.2-0.4v-3.5
	c0-0.2-0.1-0.3-0.2-0.4C77.9,88.8,77.8,88.7,77.6,88.7z M105.3,107.5h-4.4c-0.2,0-0.4-0.1-0.5-0.2c-0.2-0.1-0.3-0.2-0.4-0.4
	l-0.7-1.5c-0.1-0.2-0.2-0.3-0.4-0.4c-0.2-0.1-0.3-0.2-0.5-0.2H93c-0.2,0-0.4,0.1-0.5,0.2c-0.2,0.1-0.3,0.2-0.3,0.4l-0.7,1.5
	c-0.1,0.2-0.2,0.3-0.3,0.4c-0.2,0.1-0.3,0.2-0.5,0.2h-4.4c-0.1,0-0.2,0-0.3-0.1c-0.1,0-0.2-0.1-0.2-0.2c-0.1-0.1-0.1-0.2-0.1-0.3
	c0-0.1,0-0.2,0.1-0.4l7.4-17.4c0.1-0.2,0.2-0.3,0.3-0.4c0.2-0.1,0.3-0.2,0.5-0.2h3.6c0.2,0,0.3,0.1,0.5,0.2c0.2,0.1,0.3,0.2,0.3,0.4
	l7.5,17.5c0.1,0.2,0.1,0.3,0,0.5C105.7,107.4,105.6,107.5,105.3,107.5z M97.2,99.9c-0.2-0.4-0.4-0.9-0.6-1.5
	c-0.2-0.6-0.5-1.1-0.7-1.6c-0.1-0.2-0.1-0.2-0.2-0.2s-0.2,0.1-0.2,0.2l-1.3,3.1c-0.1,0.2-0.1,0.3,0,0.4c0.1,0.1,0.2,0.2,0.4,0.2h2.3
	c0.2,0,0.3-0.1,0.4-0.2S97.3,100,97.2,99.9z M123.8,107.3c-0.2-0.1-0.3-0.2-0.4-0.3c-0.5-0.7-1.1-1.4-1.6-2.2
	c-0.5-0.7-1.1-1.5-1.6-2.2c-0.1-0.1-0.2-0.3-0.4-0.3c-0.2-0.1-0.4-0.1-0.5-0.1h-0.6c-0.2,0-0.3,0.1-0.4,0.2s-0.2,0.3-0.2,0.4v4.2
	c0,0.2-0.1,0.3-0.2,0.4c-0.1,0.1-0.3,0.2-0.4,0.2h-3.8c-0.2,0-0.3-0.1-0.4-0.2c-0.1-0.1-0.2-0.3-0.2-0.4V89.3c0-0.2,0.1-0.3,0.2-0.4
	c0.1-0.1,0.3-0.2,0.4-0.2h8c1,0,1.9,0.2,2.7,0.5c0.8,0.3,1.6,0.8,2.1,1.4c0.6,0.6,1.1,1.3,1.4,2.1c0.3,0.8,0.5,1.7,0.5,2.7
	c0,0.5-0.1,1.1-0.2,1.6c-0.1,0.5-0.3,1-0.6,1.5c-0.2,0.5-0.5,0.9-0.8,1.3c-0.3,0.4-0.7,0.7-1.1,1c-0.1,0.1-0.2,0.2-0.3,0.4
	c0,0.1,0,0.3,0.1,0.4c0.7,0.9,1.3,1.7,2.1,2.6c0.7,0.9,1.4,1.7,1.9,2.5c0.1,0.1,0.1,0.3,0.1,0.4c-0.1,0.2-0.2,0.2-0.3,0.2h-4.8
	C124.1,107.5,124,107.4,123.8,107.3z M123.2,95.4c0-0.2,0-0.4-0.1-0.6c-0.1-0.2-0.2-0.5-0.3-0.7c-0.1-0.2-0.3-0.4-0.6-0.5
	c-0.2-0.1-0.5-0.2-0.9-0.2h-2.7c-0.2,0-0.3,0.1-0.4,0.2c-0.1,0.1-0.2,0.3-0.2,0.4v2.7c0,0.2,0.1,0.3,0.2,0.4s0.3,0.2,0.4,0.2h2.7
	c0.2,0,0.4,0,0.6-0.1c0.2-0.1,0.4-0.2,0.6-0.4c0.2-0.2,0.3-0.4,0.5-0.6C123.1,96.1,123.2,95.8,123.2,95.4z M151.1,88.7h-13.1
	c-0.2,0-0.3,0.1-0.4,0.2c-0.1,0.1-0.2,0.3-0.2,0.4v17.6c0,0.2,0.1,0.3,0.2,0.4c0.1,0.1,0.3,0.2,0.4,0.2h13.1c0.2,0,0.3-0.1,0.4-0.2
	c0.1-0.1,0.2-0.3,0.2-0.4v-3.5c0-0.2-0.1-0.3-0.2-0.4c-0.1-0.1-0.3-0.2-0.4-0.2h-8c-0.2,0-0.3-0.1-0.4-0.2c-0.1-0.1-0.2-0.3-0.2-0.4
	v-1c0-0.2,0.1-0.3,0.2-0.4c0.1-0.1,0.3-0.2,0.4-0.2h7c0.2,0,0.3-0.1,0.4-0.2c0.1-0.1,0.2-0.3,0.2-0.4v-3.5c0-0.2-0.1-0.3-0.2-0.4
	c-0.1-0.1-0.3-0.2-0.4-0.2h-7c-0.2,0-0.3-0.1-0.4-0.2c-0.1-0.1-0.2-0.3-0.2-0.4V94c0-0.2,0.1-0.3,0.2-0.4c0.1-0.1,0.3-0.2,0.4-0.2h8
	c0.2,0,0.3-0.1,0.4-0.2c0.1-0.1,0.2-0.3,0.2-0.4v-3.5c0-0.2-0.1-0.3-0.2-0.4C151.5,88.8,151.3,88.7,151.1,88.7z M177.6,94.1
	c0.5,1.2,0.7,2.5,0.7,4c0,1.5-0.2,2.8-0.7,4c-0.5,1.2-1.2,2.2-2.1,3.1c-0.9,0.8-1.8,1.4-2.9,1.7c-1.1,0.4-2.3,0.6-3.7,0.6h-7
	c-0.2,0-0.3-0.1-0.4-0.2c-0.1-0.1-0.2-0.3-0.2-0.4V89.3c0-0.2,0.1-0.3,0.2-0.4c0.1-0.1,0.3-0.2,0.4-0.2h7c2.7,0,4.9,0.8,6.6,2.4
	C176.4,91.9,177.1,92.9,177.6,94.1z M173.2,98.1c0-1-0.1-1.8-0.4-2.4c-0.3-0.6-0.6-1.1-1-1.4c-0.4-0.3-0.9-0.6-1.4-0.7
	c-0.5-0.1-1-0.2-1.5-0.2h-1.9c-0.2,0-0.3,0.1-0.4,0.2c-0.1,0.1-0.2,0.3-0.2,0.4v8.1c0,0.2,0.1,0.3,0.2,0.4c0.1,0.1,0.3,0.2,0.4,0.2
	h1.9c0.5,0,1-0.1,1.5-0.2c0.5-0.1,1-0.3,1.4-0.7c0.4-0.3,0.7-0.8,1-1.4C173,99.9,173.2,99.1,173.2,98.1z M16.7,97.8H3.1
	c-0.5,0-1,0.4-1,1s0.4,1,1,1h13.6c0.5,0,1-0.4,1-1S17.3,97.8,16.7,97.8z M211.6,97.8H198c-0.5,0-1,0.4-1,1s0.4,1,1,1h13.6
	c0.5,0,1-0.4,1-1S212.2,97.8,211.6,97.8z"></path>
</svg>