<?xml version="1.0" encoding="UTF-8"?>
<!-- Generator: Adobe Illustrator 21.0.2, SVG Export Plug-In . SVG Version: 6.00 Build 0)  -->

<svg version="1.1" id="logo" xmlns="http://www.w3.org/2000/svg" xlink="http://www.w3.org/1999/xlink" x="0px" y="0px" viewBox="0 0 442.2 510.1" style="enable-background:new 0 0 442.2 510.1;" xml:space="preserve">
  <style type="text/css">
	#logo {width: 44px; fill: #fff;}
  </style>
					<path d="M382.9,167.4v-48.8L221.1,61.7L59.3,118.6v273l161.8,56.8l161.8-56.8V284.3H158.1v44.6h182.7v23.7H134.4v-92h272.3v147.7
	l-185.5,65.2L35.6,408.4V101.8l185.5-65.2l185.5,65.2v65.6H382.9z M115.9,121.2c-9.5,0-17.1,7.7-17.1,17.1v232.7
	c0,9.5,7.7,17.1,17.1,17.1h224.8v-23.7H122.5V144.9h218.2c-0.5-2.1,0-23.7,0-23.7H115.9z M442.2,167.4V89.1
	c0-7.5-4.8-14.2-11.9-16.7L227,1c-3.8-1.3-8-1.3-11.8,0L11.9,72.4C4.8,74.9,0,81.6,0,89.1V421c0,7.5,4.8,14.2,11.9,16.7l203.4,71.4
	c3.8,1.3,8,1.3,11.8,0l203.4-71.4c7.1-2.5,11.9-9.2,11.9-16.7V242.8c0-9.8-7.9-17.7-17.7-17.7H158.1v-44.6h182.7v-23.7H134.4v92
	h284.1v168l-197.4,69.3L23.7,416.8V93.4l197.4-69.3l197.4,69.3v74H442.2z"></path>
				</svg>
