<?xml version="1.0" encoding="UTF-8"?>
<!-- Generator: Adobe Illustrator 21.0.2, SVG Export Plug-In . SVG Version: 6.00 Build 0)  -->
<svg version="1.1" id="Layer_1" xmlns="http://www.w3.org/2000/svg" xlink="http://www.w3.org/1999/xlink" x="0px" y="0px" viewBox="0 0 300 299.8" style="enable-background:new 0 0 300 299.8;" xml:space="preserve">
	<style type="text/css">
	.ins {fill:#ffffff;}
	</style>
<path class="ins" d="M149.9,73.2c-43.3,0-76.7,34.1-76.7,76.7s34.1,77.4,76.7,77.4c43.3,0,77.4-34.1,77.4-77.4S193.3,73.2,149.9,73.2z
	 M149.9,200.4c-27.7,0-49.7-22-49.7-49.7s22-49.7,49.7-49.7s49.7,22,49.7,49.7S178.3,200.4,149.9,200.4z M299.1,88.1
	c-0.7-16.3-2.8-27-7.1-36.2c-4.3-9.9-9.2-17.8-17.1-27c-7.8-7.8-17.1-12.8-27-17.1c-9.9-4.3-19.9-5.7-36.2-7.1
	C196.1,0,190.4,0,149.9,0s-46.2,0-61.8,0.7c-16.3,0.7-27,2.8-36.2,7.1c-9.9,4.3-17.8,9.2-27,17.1c-7.8,7.8-12.8,17.1-17.1,27
	S2.1,71.8,0.7,88.1C0,104.4,0,109.4,0,149.9s0,46.2,0.7,61.8c0.7,16.3,2.8,27,7.1,36.2c4.3,9.9,9.2,17.8,17.1,27
	c7.8,7.8,17.1,12.8,27,17.1c9.9,4.3,19.9,5.7,36.2,7.1c16.3,0.7,21.3,0.7,61.8,0.7c41.2,0,46.2,0,61.8-0.7c16.3-0.7,27-2.8,36.2-7.1
	c9.9-4.3,17.8-9.2,27-17.1c7.8-7.8,12.8-17.1,17.1-27c4.3-9.9,5.7-19.9,7.1-36.2c0.7-16.3,0.7-21.3,0.7-61.8S300.5,104.4,299.1,88.1
	z M272.1,211c-0.7,14.9-2.8,22.7-5,27.7c-2.8,7.1-5.7,12.1-10.7,17.1s-9.9,9.2-17.1,11.4c-5,2.1-12.8,4.3-27.7,5
	c-16.3,0.7-21.3,0.7-61.1,0.7s-44.8,0-61.1-0.7c-14.9-0.7-22.7-2.8-27.7-5c-7.1-2.8-12.1-5.7-17.1-11.4c-5-5-9.2-9.9-10.7-17.1
	c-2.1-5-4.3-12.8-5-27.7c-0.7-16.3-0.7-21.3-0.7-61.1s0-44.8,0.7-61.1c0.7-14.9,2.8-22.7,5-27.7C36.9,54,39.8,49,44.8,44
	s9.9-9.2,17.1-11.4c5-2.1,12.8-4.3,27.7-5c16.3-0.7,21.3-0.7,61.1-0.7s44.8,0,61.1,0.7c14.9,0.7,22.7,2.8,27.7,5
	c7.1,2.8,12.1,5.7,17.1,11.4s9.2,9.9,10.7,17.1c2.1,5.7,4.3,14.2,5,27.7c0.7,16.3,0.7,21.3,0.7,61.1S273.5,195.4,272.1,211z
	 M248,70.3c0,9.9-7.8,17.8-17.8,17.8c-9.9,0-17.8-7.8-17.8-17.8s7.8-17.8,17.8-17.8C240.1,51.9,248,60.4,248,70.3z"></path>
</svg>